<?xml version="1.0" standalone="no"?><!DOCTYPE svg PUBLIC "-//W3C//DTD SVG 1.1//EN" "http://www.w3.org/Graphics/SVG/1.1/DTD/svg11.dtd"><svg t="1596250556097" class="icon" viewBox="0 0 1024 1024" version="1.1" xmlns="http://www.w3.org/2000/svg" p-id="1353" width="24" height="24" xmlns:xlink="http://www.w3.org/1999/xlink"><defs><style type="text/css"></style></defs><path d="M1023.904036 512.000128c5.119039 317.380412-194.523478 517.022929-511.90389 511.90389-317.380412 5.119039-517.022929-194.523478-511.90389-511.90389C-5.022783 194.619716 194.619734-5.022801 512.000146 0.096238c317.380412-5.119039 517.022929 194.523478 511.90389 511.90389z" fill="#4279F5" p-id="1354"></path><path d="M1021.344517 565.750036C1005.9874 340.512325 852.416233 202.298274 614.380924 204.857794c-253.392426-5.119039-414.642151 156.130686-409.523112 409.523112-5.119039 238.035309 135.654531 391.606476 360.892242 406.963593 268.749542-15.357117 440.237345-186.84492 455.594463-455.594463z" fill="#3F6FF5" p-id="1355"></path><path d="M1016.225478 629.738023c-30.714233-138.21405-138.21405-222.678192-299.463776-220.118673-189.404439-2.559519-309.701853 117.737895-307.142334 307.142334-2.559519 158.690206 81.904622 268.749542 220.118673 299.463776 209.880595-35.833272 350.654165-176.606842 386.487437-386.487437z" fill="#3C67F5" p-id="1356"></path><path d="M998.308842 706.523606c-33.273753-58.868947-94.70222-92.1427-179.166362-92.1427-127.975973-2.559519-207.321075 76.785584-204.761556 204.761556-2.559519 81.904622 33.273753 145.892609 92.1427 179.166362 140.77357-40.952311 250.832906-151.011648 291.785218-291.785218z" fill="#395EF5" p-id="1357"></path><path d="M535.035821 368.667039c0 5.119039-5.119039 7.678558-12.797597 7.678558-10.238078 0-12.797597-2.559519-12.797597-7.678558V248.369625h-10.238078c-2.559519 0-5.119039 0-5.119039-2.55952s-2.559519-5.119039-2.55952-10.238078 0-10.238078 2.55952-10.238077c2.559519-2.559519 2.559519-2.559519 7.678558-2.55952h23.035675c10.238078 0 15.357117 5.119039 15.357117 12.797597l-5.119039 133.095012z" fill="#FFFFFF" p-id="1358"></path><path d="M424.976485 174.143561l176.606842 2.559519c17.916636 0 30.714233 15.357117 30.714233 30.714233l-2.559519 174.047323c0 17.916636-15.357117 30.714233-30.714234 30.714233l-176.606842-2.559519c-17.916636 0-30.714233-15.357117-30.714233-30.714233V204.857794c0-15.357117 15.357117-30.714233 33.273753-30.714233m0-46.071351c-43.511831 0-76.785584 35.833272-76.785584 76.785584v174.047323c0 43.511831 33.273753 79.345103 76.785584 79.345103l176.606842 2.559519c43.511831 0 79.345103-35.833272 79.345103-76.785584l2.559519-174.047322c0-20.476156-7.678558-40.952311-23.035675-56.309428-15.357117-15.357117-33.273753-23.035675-53.749908-23.035675L424.976485 128.07221zM716.761702 665.571295c5.119039 0 7.678558 2.559519 12.797597 2.559519 5.119039 2.559519 7.678558 5.119039 12.797598 7.678559 2.559519 2.559519 5.119039 7.678558 7.678558 10.238078 2.559519 5.119039 2.559519 10.238078 2.559519 15.357116 0 7.678558-2.559519 12.797597-5.119039 17.916636-2.559519 5.119039-5.119039 10.238078-10.238077 15.357117-5.119039 5.119039-10.238078 7.678558-15.357117 10.238078-5.119039 2.559519-12.797597 2.559519-20.476156 2.559519-7.678558 0-15.357117-2.559519-23.035675-5.119039-5.119039-2.559519-10.238078-7.678558-15.357116-10.238077-5.119039-5.119039-7.678558-7.678558-7.678559-12.797598-2.559519-5.119039-2.559519-10.238078-2.559519-12.797597 0-2.559519 2.559519-7.678558 5.119039-10.238078 2.559519-2.559519 5.119039-2.559519 7.678558-2.559519h5.119039c2.559519 0 2.559519 0 5.119039 2.559519 2.559519 0 2.559519 2.559519 2.559519 2.55952 0 2.559519 2.559519 2.559519 2.55952 5.119039s0 2.559519 2.559519 5.119039c0 2.559519 2.559519 5.119039 5.119039 5.119039 2.559519 2.559519 5.119039 2.559519 7.678558 5.119038 2.559519 2.559519 5.119039 2.559519 10.238078 2.55952 2.559519 0 5.119039 0 7.678559-2.55952 2.559519 0 5.119039-2.559519 7.678558-5.119038 2.559519-2.559519 2.559519-5.119039 5.119039-7.678559 0-2.559519 2.559519-5.119039 2.559519-7.678558 0-2.559519 0-7.678558-2.559519-10.238078s-2.559519-5.119039-5.119039-7.678558c-2.559519-2.559519-5.119039-2.559519-7.678558-5.119039-2.559519 0-7.678558-2.559519-10.238078-2.55952-2.559519 0-7.678558 0-10.238078-2.559519-2.559519-2.559519-5.119039-5.119039-5.119039-10.238078 0-2.559519 0-7.678558 2.55952-10.238078 2.559519-2.559519 5.119039-2.559519 10.238077-2.559519 2.559519 0 5.119039 0 7.678559-2.55952 2.559519 0 5.119039-2.559519 7.678558-5.119039 2.559519-2.559519 2.559519-5.119039 5.119039-7.678558 0-2.559519 2.559519-5.119039 2.559519-7.678558 0-5.119039-2.559519-10.238078-5.119038-12.797597-7.678558 2.559519-12.797597 2.559519-15.357117 2.559519-5.119039 0-10.238078 2.559519-12.797597 5.119039s-5.119039 7.678558-5.119039 12.797597c0 2.559519 0 5.119039-2.55952 7.678558-2.559519 2.559519-5.119039 2.559519-10.238078 2.55952-2.559519 0-5.119039 0-7.678558-2.55952-2.559519-2.559519-2.559519-5.119039-2.559519-10.238077s0-10.238078 2.559519-15.357117c2.559519-5.119039 5.119039-7.678558 10.238078-12.797597 5.119039-2.559519 7.678558-5.119039 12.797597-7.678559 5.119039-2.559519 10.238078-2.559519 17.916636-2.559519 5.119039 0 10.238078 0 15.357117 2.559519 5.119039 2.559519 10.238078 5.119039 12.797597 7.678559 5.119039 2.559519 7.678558 7.678558 10.238078 12.797597s2.559519 10.238078 2.559519 17.916636c0 5.119039 0 10.238078-2.559519 12.797597-2.559519 5.119039-2.559519 7.678558-5.119039 10.238078-2.559519 2.559519-5.119039 5.119039-10.238078 7.678559-5.119039 0-7.678558 2.559519-12.797597 2.559519zM366.107537 734.67832c0 7.678558-2.559519 12.797597-7.678558 12.797597h-81.904622c-2.559519 0-5.119039-2.559519-5.119039-5.119039-2.559519-2.559519-2.559519-7.678558-2.55952-12.797597v-7.678558c0-2.559519 2.559519-5.119039 2.55952-7.678558 0-2.559519 2.559519-2.559519 7.678558-7.678559 2.559519-2.559519 7.678558-7.678558 12.797597-10.238078 5.119039-5.119039 10.238078-7.678558 15.357117-12.797597 5.119039-5.119039 10.238078-10.238078 12.797597-15.357117 5.119039-5.119039 7.678558-10.238078 10.238078-17.916636 2.559519-5.119039 5.119039-12.797597 5.119039-17.916636 0-5.119039-2.559519-10.238078-5.119039-12.797597-2.559519-2.559519-7.678558-5.119039-12.797597-5.119039s-10.238078 2.559519-12.797597 5.119039c-2.559519 5.119039-5.119039 10.238078-5.119039 15.357117 0 5.119039 0 7.678558-2.55952 10.238077s-5.119039 2.559519-10.238078 2.55952-10.238078 0-12.797597-2.55952c-2.559519-2.559519-2.559519-5.119039-2.559519-10.238077 0-15.357117 5.119039-25.595195 12.797597-35.833273 7.678558-7.678558 20.476156-12.797597 35.833272-12.797597 12.797597 0 25.595195 5.119039 33.273753 12.797597 7.678558 7.678558 10.238078 17.916636 10.238078 30.714234 0 5.119039 0 10.238078-2.55952 15.357116-2.559519 10.238078-2.559519 15.357117-7.678558 20.476156-2.559519 5.119039-5.119039 10.238078-10.238078 15.357117-2.559519 5.119039-7.678558 10.238078-10.238077 12.797597l-15.357117 15.357117c-5.119039 5.119039-10.238078 10.238078-15.357117 12.797597H358.428979c5.119039 0 7.678558 5.119039 7.678558 12.797597z" fill="#FFFFFF" p-id="1359"></path><path d="M616.940444 545.273881l176.606842 2.559519c17.916636 0 30.714233 15.357117 30.714233 30.714234l-2.559519 174.047322c0 17.916636-15.357117 30.714233-30.714234 30.714234H614.380924c-17.916636 0-30.714233-15.357117-30.714233-30.714234v-174.047322c2.559519-17.916636 15.357117-33.273753 33.273753-33.273753m0-46.07135c-43.511831 0-76.785584 35.833272-76.785584 76.785583v174.047323c0 20.476156 7.678558 40.952311 23.035675 56.309428 15.357117 15.357117 33.273753 23.035675 53.749909 23.035675l176.606842 2.559519c43.511831 0 79.345103-35.833272 79.345103-76.785583l2.559519-174.047323c0-20.476156-7.678558-40.952311-23.035675-56.309428-15.357117-15.357117-33.273753-23.035675-53.749909-23.035675l-181.72588-2.559519zM407.059849 547.8334c17.916636 0 30.714233 15.357117 30.714233 30.714234v174.047322c0 17.916636-15.357117 30.714233-30.714233 30.714234H230.453007c-17.916636 0-30.714233-15.357117-30.714234-30.714234v-174.047322c0-17.916636 15.357117-30.714233 30.714234-30.714234h176.606842m0-46.07135H230.453007c-43.511831 0-76.785584 35.833272-76.785584 76.785584v174.047322c0 43.511831 35.833272 76.785584 76.785584 76.785584h176.606842c43.511831 0 76.785584-35.833272 76.785583-76.785584v-174.047322c0-43.511831-33.273753-76.785584-76.785583-76.785584z" fill="#FFFFFF" p-id="1360"></path></svg>