<?xml version="1.0" standalone="no"?><!DOCTYPE svg PUBLIC "-//W3C//DTD SVG 1.1//EN" "http://www.w3.org/Graphics/SVG/1.1/DTD/svg11.dtd"><svg t="1596246998833" class="icon" viewBox="0 0 1024 1024" version="1.1" xmlns="http://www.w3.org/2000/svg" p-id="839" width="16" height="16" xmlns:xlink="http://www.w3.org/1999/xlink"><defs><style type="text/css"></style></defs><path d="M792.576 960h-214.528a84.48 84.48 0 0 1-59.904-24.576 82.432 82.432 0 0 1-25.6-59.904v-216.064a82.432 82.432 0 0 1 25.6-59.904 84.48 84.48 0 0 1 59.904-24.576h214.528a84.992 84.992 0 0 1 84.992 84.992v215.552a83.968 83.968 0 0 1-84.992 84.48z m-214.528-322.56a22.528 22.528 0 0 0-16.384 6.656 19.968 19.968 0 0 0-6.144 15.36v216.064a17.92 17.92 0 0 0 6.144 14.848 20.48 20.48 0 0 0 16.384 6.656h214.528a19.968 19.968 0 0 0 15.872-6.144 19.968 19.968 0 0 0 6.144-15.36v-215.552a20.992 20.992 0 0 0-22.016-22.016z m-215.552 322.56H147.968a83.456 83.456 0 0 1-59.904-24.576 82.432 82.432 0 0 1-24.576-59.904v-216.064a82.432 82.432 0 0 1 24.576-59.904 83.456 83.456 0 0 1 59.904-24.576h214.528a85.504 85.504 0 0 1 60.416 24.576 82.432 82.432 0 0 1 25.088 60.416v215.552a81.92 81.92 0 0 1-25.088 59.904 86.528 86.528 0 0 1-60.416 24.576z m-214.528-322.56a20.48 20.48 0 0 0-15.872 6.656 20.992 20.992 0 0 0-6.144 15.36v216.064a21.504 21.504 0 0 0 6.144 15.36 19.968 19.968 0 0 0 15.872 6.144h214.528a19.968 19.968 0 0 0 16.384-6.656 18.432 18.432 0 0 0 6.656-14.848v-215.552a18.944 18.944 0 0 0-6.656-15.36 21.504 21.504 0 0 0-16.384-6.656z m563.2-77.824a88.064 88.064 0 0 1-61.952-26.112L490.496 373.76a87.552 87.552 0 0 1-25.088-61.952 88.576 88.576 0 0 1 24.576-61.952l160.256-160.256a89.6 89.6 0 0 1 123.904 0l160.256 160.256a88.576 88.576 0 0 1 26.112 62.464 83.456 83.456 0 0 1-26.624 61.952l-159.232 159.744a88.576 88.576 0 0 1-62.464 25.6z m0-432.64a24.064 24.064 0 0 0-18.432 7.68l-157.696 159.232a23.552 23.552 0 0 0-7.168 17.92 22.528 22.528 0 0 0 7.168 17.408l159.744 159.744a22.528 22.528 0 0 0 35.328 0l159.744-159.744a21.504 21.504 0 0 0 8.192-17.408 22.528 22.528 0 0 0-8.192-17.92l-159.232-159.744a23.552 23.552 0 0 0-17.92-7.168z m-348.672 403.456H147.968a81.408 81.408 0 0 1-60.416-25.6 83.968 83.968 0 0 1-24.064-59.904V230.4a83.456 83.456 0 0 1 24.576-59.904 81.408 81.408 0 0 1 59.904-24.576h214.528a84.992 84.992 0 0 1 60.416 24.064 82.944 82.944 0 0 1 25.088 60.416v214.528a85.504 85.504 0 0 1-85.504 85.504zM147.968 204.8v3.072a19.968 19.968 0 0 0-15.36 6.144 20.48 20.48 0 0 0-6.656 15.872v215.04a21.504 21.504 0 0 0 6.656 15.872 19.456 19.456 0 0 0 15.36 6.656h214.528a23.552 23.552 0 0 0 23.04-23.04V230.4a19.456 19.456 0 0 0-6.656-15.36 21.504 21.504 0 0 0-16.384-6.656c-128 0-186.368 0-214.528-3.584z m0-28.16z" fill="#666666" p-id="840"></path></svg>