<?xml version="1.0" standalone="no"?><!DOCTYPE svg PUBLIC "-//W3C//DTD SVG 1.1//EN" "http://www.w3.org/Graphics/SVG/1.1/DTD/svg11.dtd"><svg t="1596247014689" class="icon" viewBox="0 0 1024 1024" version="1.1" xmlns="http://www.w3.org/2000/svg" p-id="1039" width="16" height="16" xmlns:xlink="http://www.w3.org/1999/xlink"><defs><style type="text/css"></style></defs><path d="M859.648 63.488H164.352A96.256 96.256 0 0 0 63.488 153.6v716.8a96.256 96.256 0 0 0 102.4 90.624h693.76a96.256 96.256 0 0 0 102.4-90.624V153.6a96.256 96.256 0 0 0-102.4-90.112zM164.352 125.952h695.296c20.992 0 38.4 12.8 38.4 28.16v70.656H125.952V153.6c0-14.848 17.408-27.648 38.4-27.648z m695.296 772.096H164.352c-20.992 0-38.4-12.8-38.4-28.16V351.232h772.096V870.4c0 14.848-17.408 27.648-38.4 27.648z" fill="#666666" p-id="1040"></path><path d="M647.168 409.6a13.312 13.312 0 0 0-17.408 0l-114.176 102.4a7.168 7.168 0 0 1-8.704 0L394.24 409.6a13.312 13.312 0 0 0-17.408 0l-14.848 13.312a12.8 12.8 0 0 0 0 18.432L460.8 530.432H398.848a13.312 13.312 0 0 0-13.312 13.312v24.064a6.656 6.656 0 0 0 6.656 6.656h95.232v51.2h-71.68a13.312 13.312 0 0 0-12.8 13.312v17.408a13.312 13.312 0 0 0 12.8 13.312h71.68v113.664a13.312 13.312 0 0 0 12.8 13.312h22.528a13.312 13.312 0 0 0 12.8-13.312v-114.176h73.728a13.312 13.312 0 0 0 13.312-13.312v-17.408a13.312 13.312 0 0 0-13.312-13.312h-73.728v-51.2h88.064a13.312 13.312 0 0 0 13.312-13.312v-17.408a13.312 13.312 0 0 0-13.312-13.312H563.2l98.304-89.6a12.8 12.8 0 0 0 0-18.432z" fill="#666666" p-id="1041"></path></svg>