<?xml version="1.0" standalone="no"?><!DOCTYPE svg PUBLIC "-//W3C//DTD SVG 1.1//EN" "http://www.w3.org/Graphics/SVG/1.1/DTD/svg11.dtd"><svg t="1596250584146" class="icon" viewBox="0 0 1024 1024" version="1.1" xmlns="http://www.w3.org/2000/svg" p-id="1571" width="24" height="24" xmlns:xlink="http://www.w3.org/1999/xlink"><defs><style type="text/css"></style></defs><path d="M1023.902757 512.000512c5.119033 317.380015-194.523235 517.022283-511.903251 511.90325-317.380015 2.559516-517.022283-194.523235-511.90325-511.90325C-5.022777 192.06098 194.619491-5.021771 511.999506 0.097262c317.380015-5.119033 517.022283 191.963719 511.903251 511.90325z" fill="#4279F5" p-id="1572"></path><path d="M1021.34324 565.750353C1005.986143 340.512923 852.415168 199.739529 614.380156 204.858562c-253.392109-5.119033-414.641633 153.570975-409.5226 409.5226-5.119033 238.035011 135.654361 391.605986 360.891792 406.963084 268.749206-15.357098 440.236795-186.844686 455.593892-455.593893z" fill="#3F6FF5" p-id="1573"></path><path d="M1016.224208 629.738259c-30.714195-138.213878-138.213878-222.677914-299.463402-220.118397-189.404203-2.559516-309.701466 117.737748-307.14195 307.14195-2.559516 158.690008 81.90452 268.749206 220.118398 299.463401 209.880333-35.833228 350.653726-176.606621 386.486954-386.486954z" fill="#3C67F5" p-id="1574"></path><path d="M998.307594 703.964231c-33.273711-58.868874-94.702101-92.142585-179.166138-92.142585-127.975813-2.559516-207.320816 76.785488-204.7613 204.7613-2.559516 81.90452 33.273711 145.892426 92.142585 179.166137 140.773394-40.95226 250.832593-151.011459 291.784853-291.784852z" fill="#395EF5" p-id="1575"></path><path d="M819.141456 396.822281v-107.499683c0-38.392744-30.714195-69.106939-69.106938-69.106939H302.119174c-38.392744 0-69.106939 30.714195-69.106939 69.106939v107.499683c0 30.714195 20.47613 58.868874 48.630809 66.547422v299.463402h-23.035647c-12.797581 0-23.035646 10.238065-23.035646 23.035646s10.238065 23.035646 23.035646 23.035646H793.546294c12.797581 0 23.035646-10.238065 23.035646-23.035646s-10.238065-23.035646-23.035646-23.035646h-23.035646V463.369703c28.154679-10.238065 48.630809-35.833228 48.630808-66.547422z m-540.057929-107.499683c0-12.797581 10.238065-23.035646 23.035647-23.035646h447.915344c12.797581 0 23.035646 10.238065 23.035646 23.035646v107.499683c0 12.797581-10.238065 23.035646-23.035646 23.035646H302.119174c-12.797581 0-23.035646-10.238065-23.035647-23.035646v-107.499683z m302.022918 470.95099h-110.059199v-133.094845c0-5.119033 2.559516-7.678549 7.678549-7.678549h94.702101c5.119033 0 7.678549 2.559516 7.678549 7.678549v133.094845z m46.071293 0v-133.094845c0-30.714195-25.595163-53.749841-53.749842-53.749841h-94.702101c-30.714195 0-53.749841 25.595163-53.749841 53.749841v133.094845h-94.702102V465.929219h394.165503v294.344369h-97.261617z" fill="#FFFFFF" p-id="1576"></path><path d="M639.975319 373.786634h69.106939c12.797581 0 23.035646-10.238065 23.035646-23.035646s-10.238065-23.035646-23.035646-23.035646H639.975319c-12.797581 0-23.035646 10.238065-23.035646 23.035646-2.559516 12.797581 7.678549 23.035646 23.035646 23.035646z" fill="#FFFFFF" p-id="1577"></path></svg>