<?xml version="1.0" standalone="no"?><!DOCTYPE svg PUBLIC "-//W3C//DTD SVG 1.1//EN" "http://www.w3.org/Graphics/SVG/1.1/DTD/svg11.dtd"><svg t="1596246791665" class="icon" viewBox="0 0 1024 1024" version="1.1" xmlns="http://www.w3.org/2000/svg" p-id="845" width="16" height="16" xmlns:xlink="http://www.w3.org/1999/xlink"><defs><style type="text/css"></style></defs><path d="M750.592 960.512h-180.224v-299.52A58.368 58.368 0 0 0 512 603.136a56.832 56.832 0 0 0-39.936 16.384 60.416 60.416 0 0 0-18.432 43.52v297.472H273.408A90.624 90.624 0 0 1 182.784 870.4v-358.4H63.488v-29.696a102.4 102.4 0 0 1 35.328-77.312L512 53.76l413.184 351.232a102.4 102.4 0 0 1 35.328 77.312V512h-119.296v358.4a91.136 91.136 0 0 1-90.624 90.112z m-117.76-62.464h117.76a28.672 28.672 0 0 0 28.16-28.672V451.072h102.4L512 135.68 141.824 451.072h102.4V870.4a28.16 28.16 0 0 0 28.16 28.16h117.76V665.6a123.392 123.392 0 0 1 37.376-88.064 125.44 125.44 0 0 1 86.016-34.816 121.856 121.856 0 0 1 118.272 120.832z" fill="#666666" p-id="846"></path></svg>