<?xml version="1.0" standalone="no"?><!DOCTYPE svg PUBLIC "-//W3C//DTD SVG 1.1//EN" "http://www.w3.org/Graphics/SVG/1.1/DTD/svg11.dtd"><svg t="1596246862873" class="icon" viewBox="0 0 1024 1024" version="1.1" xmlns="http://www.w3.org/2000/svg" p-id="1087" width="16" height="16" xmlns:xlink="http://www.w3.org/1999/xlink"><defs><style type="text/css"></style></defs><path d="M646.656 501.76a240.128 240.128 0 1 0-269.312 0 444.928 444.928 0 0 0-313.856 427.52v31.232h897.024v-31.232a444.928 444.928 0 0 0-313.856-427.52zM334.848 303.104A177.152 177.152 0 1 1 512 480.768a177.152 177.152 0 0 1-177.152-177.664zM126.976 898.048a384.512 384.512 0 0 1 318.976-349.696h129.536a385.024 385.024 0 0 1 321.536 349.696z" fill="#666666" p-id="1088"></path><path d="M506.88 442.368a150.016 150.016 0 0 0 119.296-61.952 31.232 31.232 0 0 0-51.2-34.816 84.992 84.992 0 0 1-67.072 33.792 93.696 93.696 0 0 1-68.096-34.816 31.232 31.232 0 0 0-43.52-6.656 30.72 30.72 0 0 0-7.168 43.52 157.184 157.184 0 0 0 117.76 60.928z" fill="#666666" p-id="1089"></path></svg>