<?xml version="1.0" standalone="no"?><!DOCTYPE svg PUBLIC "-//W3C//DTD SVG 1.1//EN" "http://www.w3.org/Graphics/SVG/1.1/DTD/svg11.dtd"><svg t="1596250477297" class="icon" viewBox="0 0 1024 1024" version="1.1" xmlns="http://www.w3.org/2000/svg" p-id="1142" width="24" height="24" xmlns:xlink="http://www.w3.org/1999/xlink"><defs><style type="text/css"></style></defs><path d="M1023.904036 512.000128c5.119039 317.380412-194.523478 517.022929-511.90389 511.90389-317.380412 5.119039-517.022929-194.523478-511.90389-511.90389C-5.022783 194.619716 194.619734-5.022801 512.000146 0.096238c317.380412-5.119039 517.022929 194.523478 511.90389 511.90389z" fill="#8258F5" p-id="1143"></path><path d="M1021.344517 565.750036C1005.9874 340.512325 852.416233 202.298274 614.380924 204.857794c-253.392426-5.119039-414.642151 156.130686-409.523112 409.523112-5.119039 238.035309 135.654531 391.606476 360.892242 406.963593 268.749542-15.357117 440.237345-186.84492 455.594463-455.594463z" fill="#814EF5" p-id="1144"></path><path d="M1016.225478 629.738023c-30.714233-138.21405-138.21405-222.678192-299.463776-220.118673-189.404439-2.559519-309.701853 117.737895-307.142334 307.142334-2.559519 158.690206 81.904622 268.749542 220.118673 299.463776 209.880595-35.833272 350.654165-176.606842 386.487437-386.487437z" fill="#7B45F5" p-id="1145"></path><path d="M998.308842 706.523606c-33.273753-58.868947-94.70222-92.1427-179.166362-92.1427-127.975973-2.559519-207.321075 76.785584-204.761556 204.761556-2.559519 81.904622 33.273753 145.892609 92.1427 179.166362 140.77357-40.952311 250.832906-151.011648 291.785218-291.785218z" fill="#7741F4" p-id="1146"></path><path d="M512.000146 844.737657c-23.035675 0-40.952311-10.238078-56.309428-25.595195L192.060215 512.000128c-23.035675-25.595195-20.476156-66.547506 2.559519-89.583181l110.059337-161.249725 2.559519-2.55952c12.797597-12.797597 30.714233-20.476156 48.63087-20.476155h312.261373c17.916636 0 35.833272 7.678558 48.630869 20.476155l2.55952 2.55952 110.059336 161.249725c23.035675 25.595195 23.035675 63.987986 2.559519 89.583181L568.309574 819.142462c-15.357117 15.357117-35.833272 25.595195-56.309428 25.595195z m-171.487803-557.975241L230.453007 448.012142l-2.55952 2.559519c-7.678558 7.678558-7.678558 20.476156 0 30.714234l266.190023 307.142334c10.238078 12.797597 30.714233 12.797597 40.952311 0l266.190023-309.701854c7.678558-7.678558 7.678558-20.476156-2.55952-30.714233l-2.559519-2.55952-110.059336-161.249725c-5.119039-2.559519-10.238078-5.119039-15.357117-5.119039H355.86946c-5.119039 2.559519-12.797597 5.119039-15.357117 7.678558z" fill="#FFFFFF" p-id="1147"></path><path d="M604.142846 440.333583h-184.2854c-12.797597 0-23.035675-10.238078-23.035675-23.035675s10.238078-23.035675 23.035675-23.035675h184.2854c12.797597 0 23.035675 10.238078 23.035675 23.035675s-10.238078 23.035675-23.035675 23.035675z" fill="#FFFFFF" p-id="1148"></path></svg>